<?xml version="1.0" encoding="utf-8"?>
<!-- Generator: Adobe Illustrator 13.0.2, SVG Export Plug-In  -->
<!DOCTYPE svg PUBLIC "-//W3C//DTD SVG 1.1//EN" "http://www.w3.org/Graphics/SVG/1.1/DTD/svg11.dtd" [
  <!ENTITY ns_flows "http://ns.adobe.com/Flows/1.0/">
]>
<svg version="1.1"
   xmlns="http://www.w3.org/2000/svg" xmlns:xlink="http://www.w3.org/1999/xlink" xmlns:a="http://ns.adobe.com/AdobeSVGViewerExtensions/3.0/"
   x="0px" y="0px" viewBox="0 0 960 540" style="enable-background:new 0 0 960 540; background-color:white;"
   xml:space="preserve">
<title>Cones</title>
<path fill="#FF8080" d="M103.329,470.607c69.174-4.304,150.169-17.208,200.778-53.393c54.543-39,73.704-89.97,90.882-143.375
  c17.514-54.446,33.589-109.006,61.822-161.096c20.236-37.335,78.382-119.896,138.041-64.082
  c34.058,31.861,92.576,185.377,116.69,241.874c30.984,72.592,64.477,171.351,183.786,180.071"/>
<path fill="#80FF80" d="M103.33,470.607c29.627-1.753,105.599-15.934,158.964-51.233c43.626-28.857,79.9-75.671,97.395-116.671
  c20.33-47.651,33.389-96.769,47.591-145.561c13.018-44.729,33.749-127.535,72.981-127.535c39.968,0,75.455,83.244,91.702,130.104
  c17.319,49.965,36.076,99.749,55.53,149.288c18.295,46.586,40.095,95.391,83.828,133.086
  c32.477,27.995,124.604,28.521,184.007,28.521"/>
<path fill="#8080FF" d="M103.329,470.607c0-7.429,0-21.874,0-21.874s19.784-54.184,26.495-81.95
  c9.38-38.812,15.756-78.172,23.06-117.218c13.452-71.922,30.746-219.485,62.646-219.485c39.6,0,87.71,228.343,101.546,273.935
  c13.542,44.627,26.132,90.225,65.821,126.946c42.483,39.307,113.118,39.377,175.831,39.646"/>
<line fill="none" stroke="#000000" stroke-linecap="round" x1="367.329" y1="479.607" x2="367.329" y2="461.607"/>
<line fill="none" stroke="#000000" stroke-linecap="round" x1="631.329" y1="479.607" x2="631.329" y2="461.607"/>
<line fill="none" stroke="#000000" stroke-linecap="round" x1="895.329" y1="479.607" x2="895.329" y2="461.607"/>
<line fill="none" stroke="#000000" stroke-linecap="round" x1="103.329" y1="479.607" x2="103.329" y2="461.607"/>
<line fill="none" stroke="#000000" stroke-linecap="round" x1="94.329" y1="360.357" x2="112.329" y2="360.357"/>
<line fill="none" stroke="#000000" stroke-linecap="round" x1="94.329" y1="470.607" x2="112.329" y2="470.607"/>
<line fill="none" stroke="#000000" stroke-linecap="round" x1="94.329" y1="250.107" x2="112.329" y2="250.107"/>
<line fill="none" stroke="#000000" stroke-linecap="round" x1="94.329" y1="139.857" x2="112.329" y2="139.857"/>
<line fill="none" stroke="#000000" stroke-linecap="round" x1="94.329" y1="29.607" x2="112.329" y2="29.607"/>
<polyline fill="none" stroke="#000000" stroke-linecap="round" stroke-linejoin="round" points="103.329,29.607 103.329,470.607
  895.329,470.607"/>
<text transform="matrix(1 0 0 1 88.1479 506.6074)" font-family="'Helvetica'" font-size="24">400</text>
<text transform="matrix(1 0 0 1 348.9214 506.6074)" font-family="'Helvetica'" font-size="24">500</text>
<text transform="matrix(1 0 0 1 609.6938 506.6074)" font-family="'Helvetica'" font-size="24">600</text>
<text transform="matrix(1 0 0 1 870.4673 506.6074)" font-family="'Helvetica'" font-size="24">700</text>
<text transform="matrix(1 0 0 1 300.9302 20.6074)" font-family="'Helvetica'" font-size="24">cone response curves</text>
<text transform="matrix(1 0 0 1 383.6235 524.6074)" font-family="'Helvetica'" font-size="24">wavelength (nm)</text>
<text transform="matrix(0 -1 1 0 40.3286 315.6211)" font-family="'Helvetica'" font-size="24">sensitivity</text>
<text transform="matrix(1 0 0 1 51.9653 477.8535)" font-family="'Helvetica'" font-size="24">0.0</text>
<text transform="matrix(1 0 0 1 51.9653 368.042)" font-family="'Helvetica'" font-size="24">2.5</text>
<text transform="matrix(1 0 0 1 51.9653 258.2305)" font-family="'Helvetica'" font-size="24">0.5</text>
<text transform="matrix(1 0 0 1 51.9653 148.4189)" font-family="'Helvetica'" font-size="24">7.5</text>
<text transform="matrix(1 0 0 1 51.9653 38.6074)" font-family="'Helvetica'" font-size="24">1.0</text>
<path fill="none" stroke="#000000" stroke-linecap="round" d="M103.329,470.607c69.174-4.304,150.169-17.208,200.778-53.393
  c54.543-39,73.704-89.97,90.882-143.375c17.514-54.446,33.589-109.006,61.822-161.096c20.236-37.335,78.382-119.896,138.041-64.082
  c34.058,31.861,92.576,185.377,116.69,241.874c30.984,72.592,64.477,171.351,183.786,180.071"/>
<path fill="none" stroke="#000000" stroke-linecap="round" d="M103.33,470.607c29.627-1.753,105.599-15.934,158.964-51.233
  c43.626-28.857,79.9-75.671,97.395-116.671c20.33-47.651,33.389-96.769,47.591-145.561c13.018-44.729,33.749-127.535,72.981-127.535
  c39.968,0,75.455,83.244,91.702,130.104c17.319,49.965,36.076,99.749,55.53,149.288c18.295,46.586,40.095,95.391,83.828,133.086
  c32.477,27.995,124.604,28.521,184.007,28.521"/>
<path fill="none" stroke="#000000" stroke-linecap="round" d="M558.727,470.607c-62.713-0.27-133.348-0.34-175.831-39.646
  c-39.689-36.722-52.279-82.319-65.821-126.946C303.239,258.423,255.128,30.08,215.529,30.08c-31.9,0-49.194,147.563-62.646,219.485
  c-7.303,39.046-13.68,78.406-23.06,117.218c-6.71,27.767-26.495,81.95-26.495,81.95"/>
<text transform="matrix(0 1 -1 0 4.3286 240.0967)" font-family="'Helvetica'" font-size="9"><a href="https://physics.info">physics.info</a></text>
</svg>