<?xml version="1.0" encoding="UTF-8" standalone="no"?>
<svg xmlns="http://www.w3.org/2000/svg" viewbox="0 0 695 498" width="695" height="498" version="1.1">
	<g font-family="sans-serif" font-size="16px" fill="#000000">
		<g text-anchor="end">
			<text y="72.47" x="40.54">4000</text>
			<text y="169.54" x="40.54">3000</text>
			<text y="266.61" x="40.54">2000</text>
			<text y="362.74" x="40.54">1000</text>
			<text y="458.45" x="40.54">0</text>
		</g>
		<g text-anchor="middle">
			<text y="17.05" x="45.61">Intensity</text>
			<text y="36.80"  x="45.61">(counts)</text>
			<text y="473.81" x="45.13">300</text>
			<text y="473.81" x="171.29">400</text>
			<text y="473.81" x="296.90">500</text>
			<text y="473.81" x="422.05">600</text>
			<text y="473.81" x="547.32">700</text>
			<text y="473.81" x="672.26">800</text>
			<text y="492.51" x="359.47">Wavelength [nm]</text>
		</g>
	</g>
	<path d="m46.41,441.57c50.56,0,101.12,0,127.03-0.01,25.91-0.01,27.17-0.04,28.82-0.08,1.64-0.04,3.67-0.10,5.47-0.19,1.80-0.09,3.37-0.22,4.81-0.44,1.44-0.22,2.75-0.52,4.27-0.99,1.52-0.46,3.25-1.10,4.56-1.66,1.30-0.55,2.19-1.04,3.09-1.70,0.90-0.66,1.83-1.49,2.69-2.31,0.86-0.81,1.65-1.60,2.50-2.68,0.84-1.07,1.74-2.42,2.59-3.79,0.85-1.37,1.66-2.76,2.38-4.22,0.72-1.45,1.35-2.96,1.91-4.58,0.56-1.61,1.06-3.33,1.62-5.29,0.55-1.96,1.17-4.16,1.79-6.50,0.61-2.34,1.23-4.82,1.79-7.37,0.55-2.54,1.05-5.16,1.46-7.65,0.40-2.49,0.71-4.87,1.05-7.82,0.33-2.94,0.70-6.45,1.15-10.28,0.44-3.83,0.97-7.99,1.44-12.21,0.47-4.22,0.88-8.51,1.24-12.30,0.36-3.79,0.66-7.10,0.96-10.62,0.29-3.52,0.57-7.27,0.79-10.91s0.38-7.18,0.56-11.06c0.18-3.88,0.38-8.11,0.58-11.56,0.19-3.44,0.36-6.10,0.56-8.78,0.19-2.68,0.41-5.38,0.63-8.45,0.21-3.06,0.41-6.50,0.58-9.62,0.16-3.11,0.27-5.90,0.42-8.82,0.14-2.92,0.32-5.97,0.46-8.76,0.13-2.79,0.24-5.31,0.33-7.60,0.09-2.28,0.18-4.32,0.28-6.75,0.10-2.43,0.22-5.25,0.35-8.14,0.13-2.89,0.27-5.86,0.47-9.70s0.44-8.55,0.68-12.97c0.23-4.42,0.45-8.54,0.65-12.66,0.19-4.11,0.37-8.21,0.62-13.10,0.25-4.89,0.57-10.59,0.85-16.39,0.27-5.80,0.51-11.70,0.83-17.91,0.31-6.20,0.71-12.71,1.03-18.85,0.32-6.14,0.57-11.93,0.86-17.31,0.29-5.38,0.63-10.36,0.91-14.54,0.28-4.17,0.52-7.55,0.69-9.79,0.16-2.23,0.27-3.34,0.50-4.49,0.22-1.15,0.58-2.35,1.00-3.17,0.41-0.82,0.90-1.26,1.52-1.53,0.61-0.27,1.36-0.37,2.01-0.16,0.64,0.20,1.19,0.71,1.62,1.29,0.43,0.57,0.75,1.20,0.98,1.92,0.22,0.72,0.36,1.52,0.66,4.15s0.77,7.07,1.20,11.71c0.43,4.63,0.83,9.45,1.14,14.02,0.30,4.57,0.52,8.90,0.77,12.70,0.24,3.79,0.50,7.05,0.82,11.64,0.31,4.58,0.68,10.48,1.08,16.38,0.39,5.89,0.82,11.78,1.22,16.46,0.39,4.67,0.76,8.14,1.11,11.87,0.35,3.73,0.69,7.72,1.08,12.10,0.38,4.37,0.83,9.13,1.24,13.80,0.41,4.67,0.79,9.25,1.21,13.97,0.41,4.72,0.87,9.58,1.35,14.31,0.47,4.72,0.97,9.32,1.53,14.14,0.55,4.81,1.17,9.85,1.70,14.88,0.52,5.03,0.97,10.05,1.46,15.20,0.49,5.14,1.03,10.42,1.63,15.46,0.59,5.04,1.24,9.86,1.94,14.84,0.69,4.98,1.44,10.14,2.00,14.94,0.55,4.80,0.90,9.25,1.44,13.77,0.54,4.51,1.27,9.09,2.04,13.85,0.76,4.75,1.55,9.69,2.58,15.10,1.02,5.41,2.29,11.30,3.96,17.46s3.74,12.59,5.56,17.41c1.81,4.81,3.37,8.01,5.10,10.93,1.72,2.91,3.62,5.54,5.71,7.77,2.08,2.23,4.36,4.06,6.82,5.58,2.45,1.52,5.09,2.72,8.60,3.74,3.51,1.02,7.91,1.85,12.35,2.40,4.43,0.55,8.90,0.81,20.95,1.07,12.04,0.25,31.67,0.50,83.65,0.67,51.97,0.16,136.32,0.25,220.65,0.34" stroke="#00f" stroke-width="4" fill="none"/>
	<path d="m46.03,441.72c97.90,0,195.8,0,254.72-0.16,58.91-0.16,78.84-0.49,90.37-0.97,11.52-0.47,14.64-1.10,17.10-1.68,2.45-0.58,4.24-1.12,6.10-2.00,1.86-0.88,3.79-2.10,5.57-3.56,1.77-1.45,3.40-3.13,5.25-5.90,1.85-2.77,3.93-6.63,5.64-10.72,1.71-4.09,3.06-8.41,4.42-13.24,1.35-4.82,2.70-10.16,4.19-17.01,1.48-6.84,3.11-15.19,4.56-24.14s2.74-18.50,4.07-29.78c1.33-11.27,2.70-24.28,4.03-40.75,1.33-16.47,2.62-36.41,3.95-58.84,1.33-22.43,2.70-47.35,3.84-69.87,1.14-22.51,2.05-42.62,2.95-58.01,0.89-15.39,1.76-26.06,2.33-32.03,0.56-5.96,0.81-7.22,1.18-8.34,0.37-1.12,0.87-2.12,1.39-2.81,0.52-0.69,1.06-1.07,1.62-1.29,0.56-0.22,1.16-0.28,1.76-0.20,0.60,0.07,1.21,0.29,1.79,0.78,0.57,0.49,1.11,1.26,1.51,2.30,0.40,1.04,0.66,2.36,0.89,4.06,0.23,1.70,0.44,3.79,0.91,10.90,0.47,7.11,1.21,19.25,1.85,31.80,0.63,12.55,1.18,25.51,1.57,37.43,0.39,11.92,0.64,22.80,0.97,32.19,0.33,9.38,0.74,17.28,1.18,26.9,0.43,9.61,0.89,20.95,1.43,33.33,0.54,12.38,1.16,25.79,1.89,39.31,0.72,13.52,1.56,27.14,2.24,38.2,0.68,11.05,1.22,19.52,2.01,27.62,0.79,8.10,1.83,15.82,2.72,22.72,0.89,6.89,1.64,12.96,3.07,21.03,1.43,8.07,3.55,18.14,5.26,24.71,1.70,6.57,2.99,9.64,4.48,12.28,1.48,2.63,3.17,4.83,5.19,6.76,2.01,1.92,4.36,3.56,7.42,4.85,3.05,1.28,6.82,2.22,13.25,2.81,6.42,0.59,15.52,0.84,39.56,0.99,24.04,0.15,63.06,0.21,102.06,0.28" stroke="#f00" stroke-width="4" fill="none"/>
	<path d="m46.09,441.72c87.48,0,174.96,0,222.21-0.44,47.25-0.44,54.28-1.33,59.36-2.67,5.07-1.33,8.19-3.12,10.64-5.34,2.44-2.22,4.21-4.88,5.92-8.56,1.71-3.68,3.38-8.40,4.80-13.70,1.42-5.30,2.61-11.20,3.79-17.76,1.18-6.55,2.37-13.76,3.50-24.67s2.21-25.54,3.19-39.39c0.97-13.85,1.85-26.94,2.57-42.24,0.72-15.30,1.31-32.84,2.14-52.36,0.83-19.52,1.91-41.04,3.03-60.36,1.12-19.31,2.28-36.43,3.01-48.17,0.72-11.73,1.01-18.09,1.40-22.32,0.38-4.22,0.86-6.33,1.48-7.83,0.62-1.50,1.38-2.41,2.07-3.16,0.69-0.74,1.30-1.33,2.07-1.64,0.76-0.30,1.67-0.33,2.63,0.33,0.95,0.67,1.95,2.05,2.60,3.98,0.64,1.92,0.94,4.39,1.58,11.88,0.64,7.49,1.64,20.00,2.63,33.03,0.98,13.02,1.95,26.57,3.08,42.15,1.13,15.58,2.42,33.20,3.92,48.69,1.50,15.48,3.20,28.81,5.44,44.59,2.23,15.77,5.00,33.98,7.91,49.67,2.91,15.68,5.97,28.84,9.09,39.74,3.11,10.89,6.29,19.53,10.10,27.59,3.81,8.06,8.25,15.55,12.71,21.26,4.45,5.71,8.92,9.65,13.59,12.66,4.66,3.01,9.51,5.09,15.65,6.78,6.13,1.68,13.54,2.98,20.58,3.80,7.03,0.82,13.68,1.17,22.42,1.56,8.74,0.39,19.57,0.81,46.77,1.30,27.19,0.48,70.76,1.02,114.32,1.56" stroke="#0f0" stroke-width="4" fill="none"/>
	<path d="m46.26,456.64,0-404.1m-2.80,352.81h5.60m-5.60-48.49h5.60m-5.60-47.56h5.60m-5.60-48.49h5.60m-5.60-48.49h5.60m-5.60-48.49h5.60m-5.60-48.49h5.60m-5.60-48.49h5.60m623.95,385.17v5.59m-62.58-5.59v5.59m-62.58-5.59v5.59m-62.58-5.59v5.59m-62.58-5.59v5.59m-62.58-5.59v5.59m-62.58-5.59v5.59m-63.51-5.59v5.59m-62.58-5.59v5.59m-62.58-5.59v5.59m-64.45-2.79,634.5,0" stroke="#000" stroke-width="0.98px" fill="none"/>
	<path d="m46.26,40.69-4.94,16.77,4.94-4.93,4.94,4.93z" fill="#000"/>
	<path d="m690.76,454.78-16.80-4.93,4.94,4.93-4.94,4.93z" fill="#000"/>
</svg>
