<?xml version="1.0" encoding="utf-8"?>
<!-- Generator: Adobe Illustrator 13.0.2, SVG Export Plug-In  -->
<!DOCTYPE svg PUBLIC "-//W3C//DTD SVG 1.1//EN" "http://www.w3.org/Graphics/SVG/1.1/DTD/svg11.dtd" [
  <!ENTITY ns_flows "http://ns.adobe.com/Flows/1.0/">
]>
<svg version="1.1"
   xmlns="http://www.w3.org/2000/svg" xmlns:xlink="http://www.w3.org/1999/xlink" xmlns:a="http://ns.adobe.com/AdobeSVGViewerExtensions/3.0/"
   x="0px" y="0px" viewBox="420 630 960 540" enable-background="new 420 630 960 540"
   xml:space="preserve" style="background-color:black;">
<title>Additive color mixing</title>
<path fill="#FF0000" d="M1179,900c0-97.932-76.305-178.028-172.702-184.114c2.165,3.256,4.251,6.591,6.233,10.024
  c32.028,55.474,31.966,120.663,5.586,174.09c26.379,53.427,26.441,118.615-5.586,174.089c-1.982,3.434-4.069,6.769-6.233,10.025
  C1102.695,1078.029,1179,997.933,1179,900z"/>
<path fill="#00FF00" d="M840.941,797.708c33.08-49.559,89.503-82.208,153.559-82.208c3.965,0,7.896,0.14,11.798,0.386
  c-53.468-80.44-160.986-106.474-245.798-57.508C675.689,707.344,644.476,813.474,687.403,900c1.738-3.503,3.583-6.977,5.565-10.411
  C724.996,834.115,781.482,801.575,840.941,797.708z"/>
<path fill="#FFFF00" d="M840.941,797.708c35.125-2.285,71.287,5.43,104.059,24.35s57.533,46.38,73.117,77.942
  c26.38-53.427,26.442-118.616-5.586-174.09c-1.982-3.433-4.068-6.768-6.233-10.024c-3.902-0.247-7.833-0.386-11.798-0.386
  C930.444,715.5,874.021,748.149,840.941,797.708z"/>
<path fill="#0000FF" d="M840.941,1002.292c-59.458-3.868-115.945-36.408-147.973-91.882c-1.982-3.434-3.827-6.908-5.565-10.411
  c-42.929,86.525-11.716,192.656,73.096,241.622c84.811,48.966,192.329,22.932,245.798-57.507c-3.902,0.246-7.834,0.386-11.798,0.386
  C930.444,1084.5,874.02,1051.851,840.941,1002.292z"/>
<path fill="#FF00FF" d="M1018.117,900c-15.584,31.562-40.347,59.021-73.117,77.941c-32.771,18.921-68.934,26.636-104.059,24.351
  c33.079,49.559,89.503,82.208,153.559,82.208c3.964,0,7.896-0.14,11.798-0.386c2.164-3.257,4.251-6.592,6.233-10.025
  C1044.559,1018.615,1044.496,953.427,1018.117,900z"/>
<path fill="#00FFFF" d="M840.941,1002.292C821.399,973.015,810,937.841,810,900s11.4-73.016,30.941-102.292
  c-59.459,3.868-115.945,36.407-147.973,91.881c-1.982,3.434-3.827,6.908-5.565,10.411c1.738,3.502,3.583,6.977,5.565,10.411
  C724.996,965.884,781.482,998.424,840.941,1002.292z"/>
<path fill="#FFFFFF" d="M945,822.058c-32.771-18.92-68.933-26.635-104.059-24.35C821.4,826.984,810,862.159,810,900
  s11.399,73.015,30.941,102.292c35.125,2.285,71.288-5.43,104.059-24.351c32.771-18.92,57.533-46.38,73.117-77.941
  C1002.533,868.438,977.771,840.978,945,822.058z"/>
<text transform="matrix(1 0 0 1 871.9863 909)" font-family="'Helvetica'" font-size="24">white</text>
<text transform="matrix(1 0 0 1 1276.9863 909)" fill="#FFFFFF" font-family="'Helvetica'" font-size="24">black</text>
<text transform="matrix(1 0 0 1 1033.2578 905.6885)" fill="#FFFFFF" font-family="'Helvetica'" font-size="24">red</text>
<text transform="matrix(0.5 -0.866 0.866 0.5 815.6113 1057.5449)" fill="#FFFFFF" font-family="'Helvetica'" font-size="24">blue</text>
<text transform="matrix(0.5 0.866 -0.866 0.5 797.7524 734.2798)" font-family="'Helvetica'" font-size="24">green</text>
<text transform="matrix(1 0 0 1 750.4355 904.2207)" font-family="'Helvetica'" font-size="24">cyan</text>
<text transform="matrix(0.5 -0.866 0.866 0.5 953.0918 816.4873)" font-family="'Helvetica'" font-size="24">yellow</text>
<text transform="matrix(0.5 0.866 -0.866 0.5 945.7793 987.7334)" fill="#FFFFFF" font-family="'Helvetica'" font-size="24">magenta</text>
<text transform="matrix(1 0 0 1 791.2852 657)" fill="#FFFFFF" font-family="'Helvetica'" font-size="24">additive color mixing</text>
<text transform="matrix(0 1 -1 0 432 876.4893)" fill="#FFFFFF" font-family="'Helvetica'" font-size="9"><a href="https://physics.info">physics.info</a></text>
</svg>