<?xml version="1.0" encoding="utf-8"?>
<!-- Generator: Adobe Illustrator 13.0.2, SVG Export Plug-In  -->
<!DOCTYPE svg PUBLIC "-//W3C//DTD SVG 1.1//EN" "http://www.w3.org/Graphics/SVG/1.1/DTD/svg11.dtd" [
  <!ENTITY ns_flows "http://ns.adobe.com/Flows/1.0/">
]>
<svg version="1.1"
   xmlns="http://www.w3.org/2000/svg" xmlns:xlink="http://www.w3.org/1999/xlink" xmlns:a="http://ns.adobe.com/AdobeSVGViewerExtensions/3.0/"
   x="0px" y="0px" viewBox="-7.671 -3.633 960 540" enable-background="new -7.671 -3.633 960 540"
   xml:space="preserve">
<title>Subtractive color mixing</title>
<path fill="#FF00FF" d="M679.36,276.778c-32.027,55.474-88.514,88.014-147.974,91.882c-33.079,49.559-89.502,82.207-153.558,82.207
  c-3.965,0-7.896-0.14-11.798-0.386c53.468,80.439,160.986,106.474,245.799,57.508c84.811-48.966,116.024-155.097,73.096-241.622
  C683.187,269.87,681.342,273.345,679.36,276.778z"/>
<path fill="#FFFF00" d="M531.387,164.076c59.459,3.868,115.945,36.408,147.973,91.881c1.982,3.434,3.827,6.908,5.564,10.411
  c42.93-86.525,11.716-192.656-73.096-241.622C527.018-24.22,419.499,1.814,366.03,82.253c3.902-0.247,7.833-0.386,11.798-0.386
  C441.884,81.867,498.308,114.516,531.387,164.076z"/>
<path fill="#FF0000" d="M531.387,164.076c19.541,29.277,30.941,64.452,30.941,102.292s-11.4,73.015-30.942,102.292
  c59.46-3.868,115.946-36.408,147.974-91.882c1.982-3.434,3.827-6.908,5.564-10.411c-1.737-3.502-3.582-6.977-5.564-10.411
  C647.333,200.483,590.846,167.944,531.387,164.076z"/>
<path fill="#00FFFF" d="M354.211,266.367c-26.38-53.427-26.443-118.615,5.585-174.089c1.982-3.434,4.069-6.769,6.234-10.025
  c-96.397,6.085-172.703,86.182-172.703,184.114c0,97.932,76.305,178.028,172.702,184.114c-2.165-3.257-4.251-6.591-6.233-10.024
  C327.769,384.983,327.832,319.794,354.211,266.367z"/>
<path fill="#0000FF" d="M531.386,368.66c-35.125,2.284-71.287-5.431-104.058-24.351c-32.771-18.921-57.534-46.38-73.117-77.942
  c-26.38,53.427-26.443,118.616,5.585,174.09c1.982,3.434,4.069,6.768,6.233,10.024c3.902,0.246,7.833,0.386,11.798,0.386
  C441.884,450.867,498.307,418.219,531.386,368.66z"/>
<path fill="#00FF00" d="M354.211,266.367c15.583-31.562,40.346-59.021,73.117-77.941s68.933-26.635,104.059-24.35
  c-33.079-49.56-89.503-82.208-153.559-82.208c-3.965,0-7.896,0.14-11.798,0.386c-2.165,3.256-4.251,6.591-6.234,10.025
  C327.769,147.752,327.832,212.94,354.211,266.367z"/>
<path d="M531.387,164.076c-35.126-2.285-71.288,5.43-104.059,24.35s-57.533,46.38-73.117,77.941
  c15.583,31.562,40.346,59.021,73.117,77.942c32.771,18.92,68.933,26.635,104.058,24.351c19.542-29.277,30.942-64.451,30.942-102.292
  S550.928,193.353,531.387,164.076z"/>
<text transform="matrix(1 0 0 1 444.3149 275.3672)" fill="#FFFFFF" font-family="'Helvetica'" font-size="24">black</text>
<text transform="matrix(1 0 0 1 849.3149 275.3672)" font-family="'Helvetica'" font-size="24">white</text>
<text transform="matrix(1 0 0 1 288.375 272.0557)" font-family="'Helvetica'" font-size="24">cyan</text>
<text transform="matrix(0.5 -0.866 0.866 0.5 543.8853 153.8066)" font-family="'Helvetica'" font-size="24">yellow</text>
<text transform="matrix(0.5 0.866 -0.866 0.5 534.0298 384.6152)" fill="#FFFFFF" font-family="'Helvetica'" font-size="24">magenta</text>
<text transform="matrix(1 0 0 1 571.1978 270.5879)" fill="#FFFFFF" font-family="'Helvetica'" font-size="24">red</text>
<text transform="matrix(0.5 -0.866 0.866 0.5 403.8638 393.3965)" fill="#FFFFFF" font-family="'Helvetica'" font-size="24">blue</text>
<text transform="matrix(0.5 0.866 -0.866 0.5 388.5469 129.6953)" font-family="'Helvetica'" font-size="24">green</text>
<text transform="matrix(1 0 0 1 346.9497 23.3672)" font-family="'Helvetica'" font-size="24">subtractive color mixing</text>
<text transform="matrix(0 1 -1 0 4.3286 242.8564)" font-family="'Helvetica'" font-size="9"><a href="https://physics.info">physics.info</a></text>
</svg>